<svg width="1536" height="1024" viewBox="0 0 1536 1024" fill="none" xmlns="http://www.w3.org/2000/svg">
<g clip-path="url(#clip0_914_20777)">
<path d="M158.465 798.184V799H154.683V798.184H158.465ZM154.881 791.436V799H153.878V791.436H154.881ZM162.73 798.039V795.145C162.73 794.923 162.685 794.731 162.594 794.568C162.508 794.402 162.376 794.274 162.2 794.184C162.023 794.094 161.805 794.049 161.545 794.049C161.303 794.049 161.09 794.09 160.906 794.174C160.726 794.257 160.584 794.366 160.48 794.501C160.38 794.636 160.329 794.781 160.329 794.937H159.368C159.368 794.736 159.42 794.537 159.524 794.34C159.628 794.142 159.777 793.964 159.971 793.805C160.168 793.642 160.404 793.514 160.677 793.42C160.955 793.323 161.263 793.275 161.602 793.275C162.011 793.275 162.371 793.344 162.683 793.483C162.998 793.621 163.244 793.831 163.421 794.111C163.601 794.388 163.691 794.736 163.691 795.155V797.774C163.691 797.961 163.706 798.16 163.737 798.371C163.772 798.583 163.822 798.764 163.888 798.917V799H162.885C162.837 798.889 162.799 798.742 162.771 798.558C162.743 798.371 162.73 798.198 162.73 798.039ZM162.896 795.592L162.906 796.267H161.935C161.661 796.267 161.417 796.29 161.202 796.335C160.987 796.376 160.807 796.44 160.662 796.527C160.516 796.614 160.406 796.723 160.329 796.854C160.253 796.982 160.215 797.133 160.215 797.306C160.215 797.483 160.255 797.644 160.335 797.789C160.414 797.935 160.534 798.051 160.693 798.138C160.856 798.221 161.055 798.262 161.29 798.262C161.585 798.262 161.845 798.2 162.07 798.075C162.295 797.951 162.473 797.798 162.605 797.618C162.74 797.438 162.813 797.263 162.823 797.093L163.234 797.556C163.209 797.701 163.143 797.862 163.036 798.039C162.929 798.216 162.785 798.385 162.605 798.548C162.428 798.707 162.217 798.841 161.971 798.948C161.729 799.052 161.455 799.104 161.15 799.104C160.769 799.104 160.435 799.029 160.148 798.881C159.863 798.732 159.642 798.532 159.483 798.283C159.327 798.03 159.249 797.748 159.249 797.436C159.249 797.135 159.308 796.87 159.425 796.641C159.543 796.409 159.713 796.217 159.934 796.065C160.156 795.909 160.423 795.791 160.735 795.711C161.046 795.632 161.394 795.592 161.779 795.592H162.896ZM168.422 797.509C168.422 797.37 168.391 797.242 168.329 797.124C168.27 797.003 168.147 796.894 167.96 796.797C167.776 796.697 167.499 796.61 167.129 796.537C166.817 796.472 166.535 796.394 166.282 796.304C166.033 796.214 165.82 796.104 165.643 795.976C165.47 795.848 165.336 795.698 165.243 795.524C165.149 795.351 165.103 795.149 165.103 794.916C165.103 794.695 165.151 794.485 165.248 794.288C165.348 794.09 165.489 793.916 165.669 793.763C165.852 793.611 166.072 793.491 166.329 793.405C166.585 793.318 166.871 793.275 167.186 793.275C167.636 793.275 168.021 793.354 168.339 793.514C168.658 793.673 168.902 793.886 169.072 794.153C169.242 794.416 169.326 794.709 169.326 795.031H168.365C168.365 794.875 168.318 794.724 168.225 794.579C168.135 794.43 168.002 794.307 167.825 794.21C167.652 794.113 167.439 794.064 167.186 794.064C166.919 794.064 166.703 794.106 166.536 794.189C166.374 794.269 166.254 794.371 166.178 794.496C166.105 794.62 166.069 794.752 166.069 794.891C166.069 794.994 166.086 795.088 166.121 795.171C166.159 795.251 166.225 795.325 166.318 795.394C166.412 795.46 166.543 795.523 166.713 795.581C166.883 795.64 167.099 795.699 167.363 795.758C167.823 795.862 168.202 795.987 168.5 796.132C168.798 796.278 169.02 796.456 169.165 796.667C169.311 796.879 169.384 797.135 169.384 797.436C169.384 797.682 169.332 797.907 169.228 798.112C169.127 798.316 168.98 798.493 168.786 798.642C168.596 798.787 168.367 798.901 168.1 798.984C167.837 799.064 167.541 799.104 167.212 799.104C166.717 799.104 166.298 799.016 165.955 798.839C165.612 798.662 165.352 798.434 165.175 798.153C164.999 797.873 164.91 797.576 164.91 797.265H165.877C165.891 797.528 165.967 797.738 166.105 797.893C166.244 798.046 166.414 798.155 166.614 798.221C166.815 798.283 167.014 798.314 167.212 798.314C167.475 798.314 167.695 798.28 167.872 798.21C168.052 798.141 168.189 798.046 168.282 797.925C168.376 797.803 168.422 797.665 168.422 797.509ZM172.946 793.379V794.116H169.907V793.379H172.946ZM170.936 792.012H171.897V797.608C171.897 797.798 171.926 797.942 171.985 798.039C172.044 798.136 172.12 798.2 172.214 798.231C172.307 798.262 172.408 798.278 172.515 798.278C172.595 798.278 172.678 798.271 172.764 798.257C172.854 798.24 172.922 798.226 172.967 798.216L172.972 799C172.896 799.024 172.796 799.047 172.671 799.068C172.55 799.092 172.402 799.104 172.229 799.104C171.994 799.104 171.777 799.057 171.58 798.964C171.382 798.87 171.225 798.714 171.107 798.496C170.993 798.274 170.936 797.977 170.936 797.602V792.012ZM178.316 798.132L179.854 793.379H180.835L178.814 799H178.17L178.316 798.132ZM177.032 793.379L178.617 798.158L178.726 799H178.082L176.045 793.379H177.032ZM182.751 793.379V799H181.785V793.379H182.751ZM181.712 791.888C181.712 791.732 181.759 791.6 181.852 791.493C181.949 791.385 182.091 791.332 182.278 791.332C182.462 791.332 182.602 791.385 182.699 791.493C182.8 791.6 182.85 791.732 182.85 791.888C182.85 792.037 182.8 792.165 182.699 792.272C182.602 792.376 182.462 792.428 182.278 792.428C182.091 792.428 181.949 792.376 181.852 792.272C181.759 792.165 181.712 792.037 181.712 791.888ZM186.574 799.104C186.182 799.104 185.827 799.038 185.509 798.906C185.194 798.771 184.922 798.583 184.693 798.34C184.468 798.098 184.295 797.81 184.174 797.478C184.052 797.145 183.992 796.782 183.992 796.387V796.169C183.992 795.711 184.059 795.304 184.194 794.948C184.329 794.587 184.513 794.283 184.745 794.033C184.977 793.784 185.24 793.595 185.535 793.467C185.829 793.339 186.134 793.275 186.449 793.275C186.851 793.275 187.197 793.344 187.488 793.483C187.783 793.621 188.023 793.815 188.21 794.064C188.397 794.31 188.536 794.601 188.626 794.937C188.716 795.27 188.761 795.633 188.761 796.028V796.459H184.563V795.675H187.8V795.602C187.786 795.353 187.734 795.11 187.644 794.875C187.557 794.639 187.419 794.445 187.228 794.293C187.038 794.141 186.778 794.064 186.449 794.064C186.231 794.064 186.03 794.111 185.846 794.205C185.663 794.295 185.505 794.43 185.374 794.61C185.242 794.79 185.14 795.01 185.067 795.27C184.994 795.53 184.958 795.829 184.958 796.169V796.387C184.958 796.653 184.994 796.905 185.067 797.14C185.143 797.372 185.252 797.576 185.394 797.753C185.54 797.93 185.715 798.068 185.919 798.169C186.127 798.269 186.362 798.319 186.626 798.319C186.965 798.319 187.253 798.25 187.488 798.112C187.724 797.973 187.93 797.788 188.106 797.556L188.688 798.018C188.567 798.202 188.413 798.377 188.226 798.543C188.039 798.709 187.809 798.844 187.535 798.948C187.265 799.052 186.944 799.104 186.574 799.104ZM191.253 798.003L192.698 793.379H193.332L193.207 794.298L191.737 799H191.118L191.253 798.003ZM190.282 793.379L191.513 798.054L191.602 799H190.952L189.321 793.379H190.282ZM194.714 798.018L195.888 793.379H196.844L195.212 799H194.568L194.714 798.018ZM193.472 793.379L194.885 797.925L195.046 799H194.433L192.921 794.288L192.797 793.379H193.472ZM200.11 799.104C199.719 799.104 199.364 799.038 199.045 798.906C198.73 798.771 198.458 798.583 198.23 798.34C198.004 798.098 197.831 797.81 197.71 797.478C197.589 797.145 197.528 796.782 197.528 796.387V796.169C197.528 795.711 197.596 795.304 197.731 794.948C197.866 794.587 198.049 794.283 198.282 794.033C198.514 793.784 198.777 793.595 199.071 793.467C199.366 793.339 199.67 793.275 199.986 793.275C200.387 793.275 200.734 793.344 201.025 793.483C201.319 793.621 201.56 793.815 201.747 794.064C201.934 794.31 202.072 794.601 202.162 794.937C202.252 795.27 202.297 795.633 202.297 796.028V796.459H198.1V795.675H201.336V795.602C201.322 795.353 201.271 795.11 201.18 794.875C201.094 794.639 200.955 794.445 200.765 794.293C200.574 794.141 200.315 794.064 199.986 794.064C199.767 794.064 199.566 794.111 199.383 794.205C199.199 794.295 199.042 794.43 198.91 794.61C198.779 794.79 198.676 795.01 198.604 795.27C198.531 795.53 198.495 795.829 198.495 796.169V796.387C198.495 796.653 198.531 796.905 198.604 797.14C198.68 797.372 198.789 797.576 198.931 797.753C199.076 797.93 199.251 798.068 199.456 798.169C199.663 798.269 199.899 798.319 200.162 798.319C200.502 798.319 200.789 798.25 201.025 798.112C201.26 797.973 201.466 797.788 201.643 797.556L202.225 798.018C202.104 798.202 201.949 798.377 201.762 798.543C201.575 798.709 201.345 798.844 201.071 798.948C200.801 799.052 200.481 799.104 200.11 799.104ZM206.91 797.909V791.02H207.876V799H206.993L206.91 797.909ZM203.127 796.252V796.143C203.127 795.713 203.179 795.323 203.283 794.974C203.391 794.62 203.541 794.317 203.735 794.064C203.933 793.812 204.167 793.618 204.437 793.483C204.71 793.344 205.015 793.275 205.351 793.275C205.704 793.275 206.013 793.337 206.276 793.462C206.543 793.583 206.768 793.761 206.951 793.997C207.138 794.229 207.285 794.51 207.393 794.839C207.5 795.168 207.575 795.54 207.616 795.956V796.434C207.578 796.846 207.504 797.216 207.393 797.545C207.285 797.874 207.138 798.155 206.951 798.387C206.768 798.619 206.543 798.797 206.276 798.922C206.009 799.043 205.697 799.104 205.341 799.104C205.012 799.104 204.71 799.033 204.437 798.891C204.167 798.749 203.933 798.55 203.735 798.293C203.541 798.037 203.391 797.736 203.283 797.389C203.179 797.04 203.127 796.66 203.127 796.252ZM204.094 796.143V796.252C204.094 796.532 204.122 796.795 204.177 797.041C204.236 797.287 204.326 797.504 204.447 797.691C204.568 797.878 204.722 798.025 204.909 798.132C205.097 798.236 205.32 798.288 205.58 798.288C205.898 798.288 206.16 798.221 206.364 798.086C206.572 797.951 206.738 797.772 206.863 797.551C206.988 797.329 207.085 797.088 207.154 796.828V795.576C207.112 795.386 207.052 795.202 206.972 795.026C206.896 794.845 206.795 794.686 206.671 794.548C206.549 794.406 206.399 794.293 206.219 794.21C206.042 794.127 205.833 794.085 205.59 794.085C205.327 794.085 205.1 794.141 204.909 794.251C204.722 794.359 204.568 794.508 204.447 794.698C204.326 794.885 204.236 795.104 204.177 795.353C204.122 795.599 204.094 795.862 204.094 796.143Z" fill="#5E5E5E"/>
<path d="M213.736 793.876L215.953 796.093L218.17 793.876" stroke="#5E5E5E" stroke-width="0.886667" stroke-linecap="round" stroke-linejoin="round"/>
<g clip-path="url(#clip1_914_20777)">
<rect width="633.555" height="380.133" transform="translate(-242 322)" fill="#000429"/>
<rect x="-242" y="603.026" width="633.555" height="19.7986" fill="#DCD5C5"/>
<rect x="-242" y="583.342" width="633.555" height="19.6848" fill="#E7A26E"/>
<rect x="-242" y="563.543" width="633.555" height="19.7986" fill="#DB5D3C"/>
<rect x="-242" y="543.744" width="633.555" height="19.7986" fill="#C93429"/>
<rect x="-242" y="622.825" width="633.555" height="19.9124" fill="#78AA9C"/>
<rect x="-242" y="642.738" width="633.555" height="19.7986" fill="#408A8B"/>
<rect x="-242" y="662.536" width="633.555" height="19.7986" fill="#2D6982"/>
<rect x="-242" y="682.335" width="633.555" height="19.7986" fill="#091C41"/>
<path d="M-214.894 543.861V491.918H-192.473C-188.618 491.918 -185.245 492.679 -182.353 494.2C-179.462 495.722 -177.213 497.861 -175.607 500.617C-174.001 503.373 -173.197 506.594 -173.197 510.28C-173.197 514 -174.026 517.221 -175.683 519.944C-177.323 522.666 -179.631 524.763 -182.607 526.234C-185.566 527.705 -189.024 528.44 -192.98 528.44H-206.372V517.484H-195.821C-194.164 517.484 -192.752 517.196 -191.585 516.621C-190.402 516.029 -189.497 515.192 -188.872 514.11C-188.229 513.028 -187.908 511.752 -187.908 510.28C-187.908 508.793 -188.229 507.524 -188.872 506.476C-189.497 505.411 -190.402 504.599 -191.585 504.041C-192.752 503.466 -194.164 503.179 -195.821 503.179H-200.792V543.861H-214.894ZM-170.166 543.861V491.918H-147.745C-143.89 491.918 -140.517 492.62 -137.626 494.023C-134.734 495.426 -132.485 497.447 -130.879 500.085C-129.273 502.722 -128.47 505.884 -128.47 509.57C-128.47 513.29 -129.298 516.427 -130.955 518.98C-132.595 521.533 -134.903 523.461 -137.879 524.763C-140.838 526.065 -144.296 526.716 -148.253 526.716H-161.644V515.759H-151.093C-149.436 515.759 -148.024 515.556 -146.858 515.15C-145.674 514.727 -144.769 514.06 -144.144 513.146C-143.501 512.233 -143.18 511.041 -143.18 509.57C-143.18 508.082 -143.501 506.873 -144.144 505.943C-144.769 504.997 -145.674 504.303 -146.858 503.864C-148.024 503.407 -149.436 503.179 -151.093 503.179H-156.064V543.861H-170.166ZM-139.731 520.02L-126.745 543.861H-142.064L-154.745 520.02H-139.731ZM-74.2814 517.889C-74.2814 523.672 -75.4059 528.55 -77.6547 532.524C-79.9035 536.48 -82.9386 539.482 -86.7599 541.527C-90.5813 543.556 -94.8422 544.571 -99.5428 544.571C-104.277 544.571 -108.555 543.548 -112.376 541.502C-116.181 539.439 -119.207 536.43 -121.456 532.473C-123.688 528.499 -124.804 523.638 -124.804 517.889C-124.804 512.107 -123.688 507.237 -121.456 503.28C-119.207 499.307 -116.181 496.306 -112.376 494.277C-108.555 492.231 -104.277 491.208 -99.5428 491.208C-94.8422 491.208 -90.5813 492.231 -86.7599 494.277C-82.9386 496.306 -79.9035 499.307 -77.6547 503.28C-75.4059 507.237 -74.2814 512.107 -74.2814 517.889ZM-88.789 517.889C-88.789 514.778 -89.2032 512.157 -90.0317 510.027C-90.8434 507.879 -92.0523 506.256 -93.6586 505.157C-95.248 504.041 -97.2094 503.483 -99.5428 503.483C-101.876 503.483 -103.846 504.041 -105.452 505.157C-107.042 506.256 -108.251 507.879 -109.079 510.027C-109.891 512.157 -110.297 514.778 -110.297 517.889C-110.297 521.001 -109.891 523.63 -109.079 525.777C-108.251 527.908 -107.042 529.531 -105.452 530.647C-103.846 531.746 -101.876 532.295 -99.5428 532.295C-97.2094 532.295 -95.248 531.746 -93.6586 530.647C-92.0523 529.531 -90.8434 527.908 -90.0317 525.777C-89.2032 523.63 -88.789 521.001 -88.789 517.889ZM-48.4933 491.918H-34.5945V527.527C-34.6114 530.909 -35.4653 533.885 -37.1561 536.455C-38.8301 539.008 -41.1466 541.003 -44.1055 542.441C-47.0476 543.861 -50.4378 544.571 -54.276 544.571C-57.607 544.571 -60.6505 543.996 -63.4066 542.846C-66.1627 541.68 -68.3608 539.854 -70.001 537.368C-71.6411 534.866 -72.4527 531.619 -72.4358 527.629H-58.3341C-58.2834 528.931 -58.0635 530.03 -57.6746 530.926C-57.2688 531.822 -56.7109 532.498 -56.0007 532.955C-55.2736 533.394 -54.3944 533.614 -53.363 533.614C-52.3146 533.614 -51.4354 533.386 -50.7252 532.929C-49.9982 532.473 -49.4486 531.797 -49.0767 530.9C-48.7047 529.987 -48.5102 528.863 -48.4933 527.527V491.918ZM-30.054 543.861V491.918H7.38145V503.28H-15.9523V512.208H5.45388V523.571H-15.9523V532.498H7.28V543.861H-30.054ZM60.7263 511.396H46.4216C46.3202 510.213 46.0496 509.139 45.61 508.175C45.1873 507.212 44.5955 506.383 43.8346 505.69C43.0906 504.98 42.186 504.439 41.1208 504.067C40.0556 503.678 38.8466 503.483 37.4939 503.483C35.1267 503.483 33.1231 504.058 31.4829 505.208C29.8597 506.358 28.6254 508.006 27.78 510.154C26.9515 512.301 26.5372 514.88 26.5372 517.889C26.5372 521.068 26.9599 523.731 27.8053 525.879C28.6677 528.009 29.9104 529.615 31.5337 530.698C33.1569 531.763 35.1098 532.295 37.3925 532.295C38.6944 532.295 39.8611 532.135 40.8925 531.814C41.924 531.475 42.8201 530.993 43.581 530.368C44.3419 529.742 44.959 528.99 45.4325 528.111C45.9228 527.214 46.2525 526.208 46.4216 525.092L60.7263 525.194C60.5572 527.392 59.94 529.632 58.8748 531.915C57.8095 534.181 56.2962 536.277 54.3348 538.205C52.3903 540.116 49.9809 541.654 47.1064 542.821C44.232 543.988 40.8925 544.571 37.0881 544.571C32.3199 544.571 28.0421 543.548 24.2545 541.502C20.4839 539.456 17.4996 536.446 15.3015 532.473C13.1203 528.499 12.0297 523.638 12.0297 517.889C12.0297 512.107 13.1456 507.237 15.3776 503.28C17.6095 499.307 20.6192 496.306 24.4067 494.277C28.1942 492.231 32.4214 491.208 37.0881 491.208C40.3684 491.208 43.3865 491.656 46.1426 492.552C48.8987 493.448 51.3167 494.758 53.3964 496.483C55.4762 498.191 57.1501 500.296 58.4182 502.798C59.6864 505.301 60.4557 508.167 60.7263 511.396ZM63.5611 503.28V491.918H108.707V503.28H93.0834V543.861H79.1845V503.28H63.5611ZM124.363 496.179V491.918H162.027V496.179H145.566V543.861H140.823V496.179H124.363ZM175.305 491.918V543.861H170.562V491.918H175.305ZM183.827 496.179V491.918H221.491V496.179H205.03V543.861H200.288V496.179H183.827ZM230.026 543.861V491.918H234.769V539.6H259.523V543.861H230.026ZM268.058 543.861V491.918H298.189V496.179H272.801V515.733H296.591V519.994H272.801V539.6H298.696V543.861H268.058Z" fill="#DCD5C5"/>
<g clip-path="url(#clip2_914_20777)">
<rect width="105.593" height="105.593" transform="translate(256.925 322)" fill="#DD6643"/>
<path d="M268.498 336.975H266.725V332.368H268.48C268.954 332.368 269.363 332.46 269.708 332.644C270.054 332.827 270.321 333.091 270.509 333.436C270.698 333.78 270.792 334.192 270.792 334.672C270.792 335.151 270.699 335.564 270.511 335.909C270.324 336.252 270.058 336.516 269.715 336.701C269.371 336.884 268.966 336.975 268.498 336.975ZM267.976 335.913H268.453C268.681 335.913 268.875 335.877 269.035 335.803C269.197 335.73 269.32 335.603 269.404 335.423C269.49 335.243 269.533 334.992 269.533 334.672C269.533 334.351 269.489 334.1 269.402 333.92C269.317 333.74 269.191 333.613 269.024 333.54C268.859 333.466 268.657 333.43 268.417 333.43H267.976V335.913ZM271.181 336.975V332.368H274.502V333.376H272.432V334.168H274.331V335.175H272.432V335.967H274.493V336.975H271.181ZM277.416 333.808C277.404 333.658 277.348 333.541 277.247 333.457C277.148 333.373 276.998 333.331 276.795 333.331C276.666 333.331 276.56 333.346 276.478 333.378C276.397 333.408 276.337 333.449 276.298 333.502C276.259 333.554 276.239 333.614 276.237 333.682C276.234 333.737 276.244 333.787 276.266 333.832C276.29 333.876 276.328 333.916 276.379 333.952C276.43 333.986 276.495 334.018 276.575 334.046C276.654 334.075 276.749 334.1 276.858 334.123L277.236 334.204C277.491 334.258 277.709 334.329 277.891 334.417C278.072 334.506 278.221 334.61 278.336 334.73C278.452 334.848 278.536 334.982 278.59 335.13C278.646 335.279 278.674 335.441 278.676 335.616C278.674 335.919 278.599 336.176 278.449 336.386C278.299 336.596 278.084 336.756 277.805 336.865C277.528 336.975 277.194 337.029 276.804 337.029C276.404 337.029 276.054 336.97 275.756 336.852C275.459 336.733 275.228 336.551 275.063 336.305C274.899 336.057 274.817 335.741 274.815 335.355H276.003C276.011 335.496 276.046 335.615 276.109 335.711C276.172 335.807 276.26 335.88 276.374 335.929C276.49 335.979 276.627 336.003 276.786 336.003C276.92 336.003 277.031 335.987 277.121 335.954C277.211 335.921 277.28 335.875 277.326 335.817C277.373 335.758 277.397 335.691 277.398 335.616C277.397 335.546 277.373 335.484 277.328 335.432C277.285 335.378 277.213 335.33 277.112 335.288C277.012 335.244 276.876 335.204 276.705 335.166L276.246 335.067C275.838 334.979 275.516 334.831 275.281 334.624C275.047 334.416 274.931 334.132 274.932 333.772C274.931 333.479 275.009 333.223 275.166 333.004C275.325 332.784 275.545 332.612 275.825 332.489C276.107 332.366 276.431 332.305 276.795 332.305C277.167 332.305 277.489 332.367 277.76 332.491C278.032 332.616 278.241 332.791 278.388 333.018C278.536 333.243 278.611 333.506 278.613 333.808H277.416ZM283.263 334.096H281.995C281.986 333.991 281.962 333.895 281.923 333.81C281.885 333.724 281.833 333.651 281.765 333.589C281.699 333.526 281.619 333.478 281.524 333.445C281.43 333.411 281.323 333.394 281.203 333.394C280.993 333.394 280.815 333.445 280.669 333.547C280.525 333.649 280.416 333.795 280.341 333.985C280.267 334.176 280.231 334.405 280.231 334.672C280.231 334.953 280.268 335.19 280.343 335.38C280.42 335.569 280.53 335.712 280.674 335.808C280.818 335.902 280.991 335.949 281.194 335.949C281.309 335.949 281.413 335.935 281.504 335.907C281.596 335.877 281.675 335.834 281.743 335.778C281.81 335.723 281.865 335.656 281.907 335.578C281.95 335.499 281.98 335.409 281.995 335.31L283.263 335.319C283.248 335.514 283.194 335.713 283.099 335.916C283.005 336.117 282.87 336.303 282.696 336.474C282.524 336.643 282.31 336.78 282.055 336.883C281.8 336.987 281.504 337.038 281.167 337.038C280.744 337.038 280.364 336.948 280.028 336.766C279.694 336.585 279.429 336.318 279.234 335.965C279.04 335.613 278.944 335.181 278.944 334.672C278.944 334.159 279.043 333.727 279.241 333.376C279.439 333.023 279.706 332.757 280.042 332.577C280.378 332.395 280.753 332.305 281.167 332.305C281.458 332.305 281.725 332.344 281.97 332.424C282.214 332.503 282.429 332.62 282.613 332.773C282.798 332.924 282.946 333.111 283.059 333.333C283.171 333.555 283.239 333.809 283.263 334.096ZM283.641 336.975V332.368H285.63C285.972 332.368 286.271 332.43 286.527 332.554C286.784 332.679 286.983 332.858 287.126 333.092C287.268 333.326 287.34 333.607 287.34 333.934C287.34 334.264 287.266 334.542 287.119 334.768C286.974 334.995 286.769 335.166 286.505 335.281C286.242 335.397 285.936 335.454 285.585 335.454H284.397V334.483H285.333C285.48 334.483 285.605 334.465 285.708 334.429C285.813 334.391 285.894 334.332 285.949 334.251C286.006 334.17 286.035 334.064 286.035 333.934C286.035 333.802 286.006 333.694 285.949 333.612C285.894 333.528 285.813 333.466 285.708 333.427C285.605 333.387 285.48 333.367 285.333 333.367H284.892V336.975H283.641ZM286.341 334.86L287.493 336.975H286.134L285.009 334.86H286.341ZM288.934 332.368V336.975H287.683V332.368H288.934ZM289.336 336.975V332.368H291.325C291.667 332.368 291.967 332.435 292.223 332.57C292.479 332.705 292.679 332.895 292.821 333.139C292.964 333.384 293.035 333.67 293.035 333.997C293.035 334.327 292.962 334.612 292.815 334.854C292.669 335.095 292.464 335.281 292.201 335.412C291.938 335.542 291.631 335.607 291.28 335.607H290.092V334.636H291.028C291.175 334.636 291.301 334.61 291.404 334.559C291.509 334.507 291.589 334.432 291.645 334.336C291.702 334.24 291.73 334.127 291.73 333.997C291.73 333.865 291.702 333.752 291.645 333.659C291.589 333.565 291.509 333.493 291.404 333.443C291.301 333.392 291.175 333.367 291.028 333.367H290.587V336.975H289.336ZM293.178 333.376V332.368H297.183V333.376H295.797V336.975H294.564V333.376H293.178ZM298.714 332.368V336.975H297.464V332.368H298.714ZM303.581 334.672C303.581 335.184 303.481 335.617 303.282 335.97C303.082 336.321 302.813 336.587 302.474 336.768C302.135 336.948 301.757 337.038 301.34 337.038C300.92 337.038 300.541 336.948 300.202 336.766C299.864 336.583 299.596 336.316 299.396 335.965C299.198 335.613 299.099 335.181 299.099 334.672C299.099 334.159 299.198 333.727 299.396 333.376C299.596 333.023 299.864 332.757 300.202 332.577C300.541 332.395 300.92 332.305 301.34 332.305C301.757 332.305 302.135 332.395 302.474 332.577C302.813 332.757 303.082 333.023 303.282 333.376C303.481 333.727 303.581 334.159 303.581 334.672ZM302.294 334.672C302.294 334.396 302.257 334.163 302.184 333.974C302.112 333.784 302.005 333.64 301.862 333.542C301.721 333.443 301.547 333.394 301.34 333.394C301.133 333.394 300.958 333.443 300.816 333.542C300.675 333.64 300.568 333.784 300.494 333.974C300.422 334.163 300.386 334.396 300.386 334.672C300.386 334.947 300.422 335.181 300.494 335.371C300.568 335.56 300.675 335.704 300.816 335.803C300.958 335.901 301.133 335.949 301.34 335.949C301.547 335.949 301.721 335.901 301.862 335.803C302.005 335.704 302.112 335.56 302.184 335.371C302.257 335.181 302.294 334.947 302.294 334.672ZM307.956 332.368V336.975H306.912L305.248 334.555H305.221V336.975H303.97V332.368H305.032L306.669 334.779H306.705V332.368H307.956Z" fill="white"/>
<rect width="105.593" height="27.982" transform="translate(256.924 399.611)" fill="#78AA9C"/>
<path d="M269.209 411.418C269.197 411.268 269.14 411.151 269.04 411.067C268.941 410.983 268.79 410.941 268.588 410.941C268.459 410.941 268.353 410.957 268.27 410.988C268.189 411.018 268.129 411.06 268.09 411.112C268.051 411.165 268.031 411.225 268.03 411.292C268.027 411.348 268.036 411.398 268.059 411.443C268.083 411.486 268.12 411.526 268.171 411.562C268.222 411.597 268.288 411.628 268.367 411.657C268.447 411.685 268.541 411.711 268.651 411.733L269.029 411.814C269.284 411.868 269.502 411.939 269.683 412.028C269.865 412.116 270.013 412.221 270.129 412.341C270.244 412.459 270.329 412.593 270.383 412.741C270.438 412.89 270.467 413.052 270.468 413.227C270.467 413.53 270.391 413.786 270.241 413.996C270.091 414.206 269.877 414.366 269.598 414.476C269.32 414.585 268.987 414.64 268.597 414.64C268.196 414.64 267.847 414.581 267.548 414.462C267.251 414.344 267.02 414.161 266.855 413.915C266.692 413.668 266.609 413.352 266.608 412.966H267.796C267.803 413.107 267.838 413.226 267.901 413.322C267.964 413.418 268.053 413.49 268.167 413.54C268.282 413.589 268.42 413.614 268.579 413.614C268.712 413.614 268.824 413.598 268.914 413.565C269.004 413.532 269.072 413.486 269.119 413.427C269.165 413.369 269.189 413.302 269.191 413.227C269.189 413.157 269.166 413.095 269.121 413.043C269.077 412.989 269.005 412.941 268.905 412.899C268.804 412.855 268.669 412.815 268.498 412.777L268.039 412.678C267.631 412.59 267.309 412.442 267.073 412.235C266.839 412.026 266.723 411.742 266.725 411.382C266.723 411.09 266.801 410.834 266.959 410.615C267.118 410.394 267.337 410.223 267.618 410.1C267.9 409.977 268.223 409.915 268.588 409.915C268.96 409.915 269.281 409.978 269.553 410.102C269.824 410.226 270.033 410.402 270.18 410.628C270.329 410.853 270.404 411.117 270.405 411.418H269.209ZM270.628 410.986V409.978H274.633V410.986H273.247V414.586H272.014V410.986H270.628ZM275.529 414.586H274.179L275.7 409.978H277.41L278.931 414.586H277.581L276.573 411.247H276.537L275.529 414.586ZM275.277 412.768H277.815V413.704H275.277V412.768ZM278.477 410.986V409.978H282.482V410.986H281.096V414.586H279.863V410.986H278.477ZM285.489 409.978H286.74V412.93C286.74 413.281 286.656 413.585 286.488 413.841C286.322 414.096 286.089 414.293 285.791 414.433C285.492 414.571 285.146 414.64 284.751 414.64C284.354 414.64 284.006 414.571 283.707 414.433C283.409 414.293 283.176 414.096 283.01 413.841C282.845 413.585 282.762 413.281 282.762 412.93V409.978H284.013V412.822C284.013 412.965 284.045 413.092 284.108 413.205C284.171 413.316 284.258 413.403 284.369 413.466C284.481 413.529 284.609 413.56 284.751 413.56C284.895 413.56 285.023 413.529 285.134 413.466C285.245 413.403 285.332 413.316 285.395 413.205C285.458 413.092 285.489 412.965 285.489 412.822V409.978ZM289.628 411.418C289.616 411.268 289.56 411.151 289.46 411.067C289.361 410.983 289.21 410.941 289.007 410.941C288.878 410.941 288.773 410.957 288.69 410.988C288.609 411.018 288.549 411.06 288.51 411.112C288.471 411.165 288.451 411.225 288.449 411.292C288.446 411.348 288.456 411.398 288.479 411.443C288.503 411.486 288.54 411.526 288.591 411.562C288.642 411.597 288.707 411.628 288.787 411.657C288.866 411.685 288.961 411.711 289.07 411.733L289.448 411.814C289.703 411.868 289.922 411.939 290.103 412.028C290.285 412.116 290.433 412.221 290.549 412.341C290.664 412.459 290.749 412.593 290.803 412.741C290.858 412.89 290.887 413.052 290.888 413.227C290.887 413.53 290.811 413.786 290.661 413.996C290.511 414.206 290.297 414.366 290.018 414.476C289.74 414.585 289.406 414.64 289.016 414.64C288.616 414.64 288.266 414.581 287.968 414.462C287.671 414.344 287.44 414.161 287.275 413.915C287.112 413.668 287.029 413.352 287.028 412.966H288.215C288.223 413.107 288.258 413.226 288.321 413.322C288.384 413.418 288.473 413.49 288.587 413.54C288.702 413.589 288.839 413.614 288.998 413.614C289.132 413.614 289.244 413.598 289.334 413.565C289.424 413.532 289.492 413.486 289.538 413.427C289.585 413.369 289.609 413.302 289.61 413.227C289.609 413.157 289.586 413.095 289.541 413.043C289.497 412.989 289.425 412.941 289.325 412.899C289.224 412.855 289.088 412.815 288.917 412.777L288.458 412.678C288.05 412.59 287.729 412.442 287.493 412.235C287.259 412.026 287.143 411.742 287.144 411.382C287.143 411.09 287.221 410.834 287.378 410.615C287.537 410.394 287.757 410.223 288.038 410.1C288.32 409.977 288.643 409.915 289.007 409.915C289.379 409.915 289.701 409.978 289.973 410.102C290.244 410.226 290.453 410.402 290.6 410.628C290.749 410.853 290.824 411.117 290.825 411.418H289.628Z" fill="white"/>
</g>
</g>
<g clip-path="url(#clip3_914_20777)">
<rect width="633.555" height="380.133" transform="translate(451.223 322)" fill="white"/>
<rect x="451.223" y="543.744" width="633.555" height="31.6324" fill="#E46600"/>
<rect x="451.223" y="575.377" width="633.555" height="31.7458" fill="#E40539"/>
<rect x="451.223" y="607.122" width="633.555" height="31.6324" fill="#C3047D"/>
<rect x="451.223" y="638.755" width="633.555" height="31.7458" fill="#0048AB"/>
<rect x="451.223" y="670.5" width="633.555" height="31.6324" fill="#039541"/>
<path d="M478.329 543.861V491.918H500.75C504.605 491.918 507.978 492.679 510.869 494.2C513.761 495.722 516.01 497.861 517.616 500.617C519.222 503.373 520.025 506.594 520.025 510.28C520.025 514 519.197 517.221 517.54 519.944C515.9 522.666 513.592 524.763 510.616 526.234C507.657 527.705 504.199 528.44 500.242 528.44H486.851V517.484H497.402C499.059 517.484 500.471 517.196 501.637 516.621C502.821 516.029 503.725 515.192 504.351 514.11C504.994 513.028 505.315 511.752 505.315 510.28C505.315 508.793 504.994 507.524 504.351 506.476C503.725 505.411 502.821 504.599 501.637 504.041C500.471 503.466 499.059 503.179 497.402 503.179H492.431V543.861H478.329ZM523.057 543.861V491.918H545.477C549.333 491.918 552.706 492.62 555.597 494.023C558.488 495.426 560.737 497.447 562.344 500.085C563.95 502.722 564.753 505.884 564.753 509.57C564.753 513.29 563.925 516.427 562.268 518.98C560.627 521.533 558.319 523.461 555.343 524.763C552.384 526.065 548.927 526.716 544.97 526.716H531.579V515.759H542.129C543.787 515.759 545.198 515.556 546.365 515.15C547.549 514.727 548.453 514.06 549.079 513.146C549.721 512.233 550.043 511.041 550.043 509.57C550.043 508.082 549.721 506.873 549.079 505.943C548.453 504.997 547.549 504.303 546.365 503.864C545.198 503.407 543.787 503.179 542.129 503.179H537.158V543.861H523.057ZM553.492 520.02L566.478 543.861H551.159L538.477 520.02H553.492ZM618.941 517.889C618.941 523.672 617.817 528.55 615.568 532.524C613.319 536.48 610.284 539.482 606.463 541.527C602.641 543.556 598.38 544.571 593.68 544.571C588.945 544.571 584.668 543.548 580.846 541.502C577.042 539.439 574.015 536.43 571.766 532.473C569.534 528.499 568.419 523.638 568.419 517.889C568.419 512.107 569.534 507.237 571.766 503.28C574.015 499.307 577.042 496.306 580.846 494.277C584.668 492.231 588.945 491.208 593.68 491.208C598.38 491.208 602.641 492.231 606.463 494.277C610.284 496.306 613.319 499.307 615.568 503.28C617.817 507.237 618.941 512.107 618.941 517.889ZM604.434 517.889C604.434 514.778 604.019 512.157 603.191 510.027C602.379 507.879 601.17 506.256 599.564 505.157C597.975 504.041 596.013 503.483 593.68 503.483C591.346 503.483 589.377 504.041 587.77 505.157C586.181 506.256 584.972 507.879 584.143 510.027C583.332 512.157 582.926 514.778 582.926 517.889C582.926 521.001 583.332 523.63 584.143 525.777C584.972 527.908 586.181 529.531 587.77 530.647C589.377 531.746 591.346 532.295 593.68 532.295C596.013 532.295 597.975 531.746 599.564 530.647C601.17 529.531 602.379 527.908 603.191 525.777C604.019 523.63 604.434 521.001 604.434 517.889ZM644.729 491.918H658.628V527.527C658.611 530.909 657.757 533.885 656.067 536.455C654.393 539.008 652.076 541.003 649.117 542.441C646.175 543.861 642.785 544.571 638.947 544.571C635.616 544.571 632.572 543.996 629.816 542.846C627.06 541.68 624.862 539.854 623.222 537.368C621.582 534.866 620.77 531.619 620.787 527.629H634.889C634.939 528.931 635.159 530.03 635.548 530.926C635.954 531.822 636.512 532.498 637.222 532.955C637.949 533.394 638.828 533.614 639.86 533.614C640.908 533.614 641.787 533.386 642.497 532.929C643.224 532.473 643.774 531.797 644.146 530.9C644.518 529.987 644.712 528.863 644.729 527.527V491.918ZM663.169 543.861V491.918H700.604V503.28H677.27V512.208H698.677V523.571H677.27V532.498H700.503V543.861H663.169ZM753.949 511.396H739.644C739.543 510.213 739.272 509.139 738.833 508.175C738.41 507.212 737.818 506.383 737.057 505.69C736.313 504.98 735.409 504.439 734.343 504.067C733.278 503.678 732.069 503.483 730.717 503.483C728.349 503.483 726.346 504.058 724.706 505.208C723.082 506.358 721.848 508.006 721.003 510.154C720.174 512.301 719.76 514.88 719.76 517.889C719.76 521.068 720.183 523.731 721.028 525.879C721.89 528.009 723.133 529.615 724.756 530.698C726.38 531.763 728.332 532.295 730.615 532.295C731.917 532.295 733.084 532.135 734.115 531.814C735.147 531.475 736.043 530.993 736.804 530.368C737.565 529.742 738.182 528.99 738.655 528.111C739.145 527.214 739.475 526.208 739.644 525.092L753.949 525.194C753.78 527.392 753.163 529.632 752.097 531.915C751.032 534.181 749.519 536.277 747.557 538.205C745.613 540.116 743.204 541.654 740.329 542.821C737.455 543.988 734.115 544.571 730.311 544.571C725.543 544.571 721.265 543.548 717.477 541.502C713.707 539.456 710.722 536.446 708.524 532.473C706.343 528.499 705.252 523.638 705.252 517.889C705.252 512.107 706.368 507.237 708.6 503.28C710.832 499.307 713.842 496.306 717.629 494.277C721.417 492.231 725.644 491.208 730.311 491.208C733.591 491.208 736.609 491.656 739.365 492.552C742.121 493.448 744.539 494.758 746.619 496.483C748.699 498.191 750.373 500.296 751.641 502.798C752.909 505.301 753.678 508.167 753.949 511.396ZM756.784 503.28V491.918H801.929V503.28H786.306V543.861H772.407V503.28H756.784ZM817.586 496.179V491.918H855.249V496.179H838.789V543.861H834.046V496.179H817.586ZM868.527 491.918V543.861H863.785V491.918H868.527ZM877.05 496.179V491.918H914.714V496.179H898.253V543.861H893.51V496.179H877.05ZM923.249 543.861V491.918H927.991V539.6H952.746V543.861H923.249ZM961.281 543.861V491.918H991.412V496.179H966.023V515.733H989.814V519.994H966.023V539.6H991.919V543.861H961.281Z" fill="#000429"/>
<path d="M496.786 467.538C496.786 469.433 496.418 471.031 495.681 472.333C494.945 473.629 493.95 474.612 492.698 475.282C491.446 475.947 490.051 476.279 488.511 476.279C486.96 476.279 485.558 475.944 484.306 475.274C483.06 474.598 482.068 473.612 481.332 472.316C480.6 471.014 480.235 469.422 480.235 467.538C480.235 465.644 480.6 464.049 481.332 462.752C482.068 461.451 483.06 460.467 484.306 459.803C485.558 459.132 486.96 458.797 488.511 458.797C490.051 458.797 491.446 459.132 492.698 459.803C493.95 460.467 494.945 461.451 495.681 462.752C496.418 464.049 496.786 465.644 496.786 467.538ZM492.034 467.538C492.034 466.519 491.898 465.66 491.626 464.962C491.361 464.259 490.965 463.727 490.438 463.367C489.918 463.002 489.275 462.819 488.511 462.819C487.746 462.819 487.101 463.002 486.575 463.367C486.054 463.727 485.658 464.259 485.386 464.962C485.121 465.66 484.988 466.519 484.988 467.538C484.988 468.558 485.121 469.419 485.386 470.122C485.658 470.82 486.054 471.352 486.575 471.718C487.101 472.078 487.746 472.258 488.511 472.258C489.275 472.258 489.918 472.078 490.438 471.718C490.965 471.352 491.361 470.82 491.626 470.122C491.898 469.419 492.034 468.558 492.034 467.538ZM501.469 476.047L496.45 459.03H501.602L503.928 469.499H504.061L506.82 459.03H510.874L513.633 469.532H513.766L516.092 459.03H521.244L516.225 476.047H511.805L508.913 466.541H508.78L505.889 476.047H501.469ZM536.761 459.03V476.047H532.906L526.757 467.106H526.657V476.047H522.038V459.03H525.959L532.008 467.937H532.141V459.03H536.761ZM538.244 476.047V459.03H550.508V462.752H542.864V465.677H549.877V469.399H542.864V472.324H550.475V476.047H538.244ZM552.098 476.047V459.03H559.443C560.706 459.03 561.811 459.26 562.758 459.72C563.705 460.179 564.442 460.841 564.968 461.705C565.494 462.57 565.757 463.605 565.757 464.813C565.757 466.032 565.486 467.059 564.943 467.896C564.406 468.732 563.65 469.363 562.675 469.79C561.705 470.217 560.573 470.43 559.276 470.43H554.889V466.84H558.346C558.889 466.84 559.351 466.774 559.733 466.641C560.121 466.502 560.418 466.284 560.623 465.984C560.833 465.685 560.938 465.295 560.938 464.813C560.938 464.325 560.833 463.929 560.623 463.625C560.418 463.315 560.121 463.087 559.733 462.943C559.351 462.794 558.889 462.719 558.346 462.719H556.717V476.047H552.098ZM562.068 468.236L566.322 476.047H561.304L557.149 468.236H562.068Z" fill="#000429"/>
<g clip-path="url(#clip4_914_20777)">
<rect width="105.593" height="105.593" transform="translate(950.148 322)" fill="#039541"/>
<path d="M961.721 336.975H959.948V332.368H961.703C962.177 332.368 962.586 332.46 962.931 332.644C963.278 332.827 963.545 333.091 963.732 333.436C963.921 333.78 964.016 334.192 964.016 334.672C964.016 335.151 963.922 335.564 963.735 335.909C963.547 336.252 963.282 336.516 962.938 336.701C962.595 336.884 962.189 336.975 961.721 336.975ZM961.199 335.913H961.676C961.904 335.913 962.098 335.877 962.259 335.803C962.421 335.73 962.544 335.603 962.628 335.423C962.713 335.243 962.756 334.992 962.756 334.672C962.756 334.351 962.712 334.1 962.625 333.92C962.54 333.74 962.414 333.613 962.247 333.54C962.082 333.466 961.88 333.43 961.64 333.43H961.199V335.913ZM964.405 336.975V332.368H967.725V333.376H965.655V334.168H967.554V335.175H965.655V335.967H967.716V336.975H964.405ZM970.639 333.808C970.627 333.658 970.571 333.541 970.471 333.457C970.372 333.373 970.221 333.331 970.018 333.331C969.889 333.331 969.784 333.346 969.701 333.378C969.62 333.408 969.56 333.449 969.521 333.502C969.482 333.554 969.462 333.614 969.461 333.682C969.458 333.737 969.467 333.787 969.49 333.832C969.514 333.876 969.551 333.916 969.602 333.952C969.653 333.986 969.719 334.018 969.798 334.046C969.877 334.075 969.972 334.1 970.081 334.123L970.459 334.204C970.714 334.258 970.933 334.329 971.114 334.417C971.296 334.506 971.444 334.61 971.56 334.73C971.675 334.848 971.76 334.982 971.814 335.13C971.869 335.279 971.898 335.441 971.899 335.616C971.898 335.919 971.822 336.176 971.672 336.386C971.522 336.596 971.308 336.756 971.029 336.865C970.751 336.975 970.417 337.029 970.027 337.029C969.627 337.029 969.278 336.97 968.979 336.852C968.682 336.733 968.451 336.551 968.286 336.305C968.123 336.057 968.04 335.741 968.039 335.355H969.227C969.234 335.496 969.269 335.615 969.332 335.711C969.395 335.807 969.484 335.88 969.598 335.929C969.713 335.979 969.85 336.003 970.009 336.003C970.143 336.003 970.255 335.987 970.345 335.954C970.435 335.921 970.503 335.875 970.549 335.817C970.596 335.758 970.62 335.691 970.621 335.616C970.62 335.546 970.597 335.484 970.552 335.432C970.508 335.378 970.436 335.33 970.336 335.288C970.235 335.244 970.099 335.204 969.928 335.166L969.47 335.067C969.062 334.979 968.74 334.831 968.504 334.624C968.27 334.416 968.154 334.132 968.156 333.772C968.154 333.479 968.232 333.223 968.39 333.004C968.549 332.784 968.768 332.612 969.049 332.489C969.331 332.366 969.654 332.305 970.018 332.305C970.39 332.305 970.712 332.367 970.984 332.491C971.255 332.616 971.464 332.791 971.611 333.018C971.76 333.243 971.835 333.506 971.836 333.808H970.639ZM976.487 334.096H975.218C975.209 333.991 975.185 333.895 975.146 333.81C975.108 333.724 975.056 333.651 974.988 333.589C974.922 333.526 974.842 333.478 974.748 333.445C974.653 333.411 974.546 333.394 974.426 333.394C974.216 333.394 974.038 333.445 973.893 333.547C973.749 333.649 973.639 333.795 973.564 333.985C973.491 334.176 973.454 334.405 973.454 334.672C973.454 334.953 973.492 335.19 973.567 335.38C973.643 335.569 973.753 335.712 973.897 335.808C974.041 335.902 974.214 335.949 974.417 335.949C974.532 335.949 974.636 335.935 974.727 335.907C974.819 335.877 974.898 335.834 974.966 335.778C975.033 335.723 975.088 335.656 975.13 335.578C975.174 335.499 975.203 335.409 975.218 335.31L976.487 335.319C976.472 335.514 976.417 335.713 976.323 335.916C976.228 336.117 976.094 336.303 975.92 336.474C975.747 336.643 975.534 336.78 975.279 336.883C975.024 336.987 974.727 337.038 974.39 337.038C973.967 337.038 973.588 336.948 973.252 336.766C972.917 336.585 972.652 336.318 972.457 335.965C972.264 335.613 972.167 335.181 972.167 334.672C972.167 334.159 972.266 333.727 972.464 333.376C972.662 333.023 972.929 332.757 973.265 332.577C973.601 332.395 973.976 332.305 974.39 332.305C974.681 332.305 974.949 332.344 975.193 332.424C975.438 332.503 975.652 332.62 975.837 332.773C976.021 332.924 976.17 333.111 976.282 333.333C976.395 333.555 976.463 333.809 976.487 334.096ZM976.864 336.975V332.368H978.853C979.195 332.368 979.494 332.43 979.751 332.554C980.007 332.679 980.207 332.858 980.349 333.092C980.492 333.326 980.563 333.607 980.563 333.934C980.563 334.264 980.49 334.542 980.343 334.768C980.197 334.995 979.992 335.166 979.728 335.281C979.466 335.397 979.159 335.454 978.808 335.454H977.62V334.483H978.556C978.703 334.483 978.828 334.465 978.932 334.429C979.037 334.391 979.117 334.332 979.173 334.251C979.23 334.17 979.258 334.064 979.258 333.934C979.258 333.802 979.23 333.694 979.173 333.612C979.117 333.528 979.037 333.466 978.932 333.427C978.828 333.387 978.703 333.367 978.556 333.367H978.115V336.975H976.864ZM979.564 334.86L980.716 336.975H979.357L978.232 334.86H979.564ZM982.157 332.368V336.975H980.906V332.368H982.157ZM982.56 336.975V332.368H984.549C984.891 332.368 985.19 332.435 985.446 332.57C985.703 332.705 985.902 332.895 986.045 333.139C986.187 333.384 986.259 333.67 986.259 333.997C986.259 334.327 986.185 334.612 986.038 334.854C985.893 335.095 985.688 335.281 985.424 335.412C985.161 335.542 984.855 335.607 984.504 335.607H983.316V334.636H984.252C984.399 334.636 984.524 334.61 984.627 334.559C984.732 334.507 984.813 334.432 984.868 334.336C984.925 334.24 984.954 334.127 984.954 333.997C984.954 333.865 984.925 333.752 984.868 333.659C984.813 333.565 984.732 333.493 984.627 333.443C984.524 333.392 984.399 333.367 984.252 333.367H983.811V336.975H982.56ZM986.401 333.376V332.368H990.406V333.376H989.02V336.975H987.787V333.376H986.401ZM991.938 332.368V336.975H990.687V332.368H991.938ZM996.804 334.672C996.804 335.184 996.705 335.617 996.505 335.97C996.306 336.321 996.036 336.587 995.697 336.768C995.358 336.948 994.98 337.038 994.563 337.038C994.143 337.038 993.764 336.948 993.425 336.766C993.088 336.583 992.819 336.316 992.62 335.965C992.422 335.613 992.323 335.181 992.323 334.672C992.323 334.159 992.422 333.727 992.62 333.376C992.819 333.023 993.088 332.757 993.425 332.577C993.764 332.395 994.143 332.305 994.563 332.305C994.98 332.305 995.358 332.395 995.697 332.577C996.036 332.757 996.306 333.023 996.505 333.376C996.705 333.727 996.804 334.159 996.804 334.672ZM995.517 334.672C995.517 334.396 995.481 334.163 995.407 333.974C995.335 333.784 995.228 333.64 995.085 333.542C994.944 333.443 994.77 333.394 994.563 333.394C994.356 333.394 994.182 333.443 994.039 333.542C993.898 333.64 993.791 333.784 993.718 333.974C993.646 334.163 993.61 334.396 993.61 334.672C993.61 334.947 993.646 335.181 993.718 335.371C993.791 335.56 993.898 335.704 994.039 335.803C994.182 335.901 994.356 335.949 994.563 335.949C994.77 335.949 994.944 335.901 995.085 335.803C995.228 335.704 995.335 335.56 995.407 335.371C995.481 335.181 995.517 334.947 995.517 334.672ZM1001.18 332.368V336.975H1000.14L998.471 334.555H998.444V336.975H997.193V332.368H998.255L999.893 334.779H999.929V332.368H1001.18Z" fill="white"/>
<rect width="105.593" height="27.982" transform="translate(950.148 399.611)" fill="#0048AB"/>
<path d="M962.432 411.418C962.42 411.268 962.364 411.151 962.263 411.067C962.164 410.983 962.013 410.941 961.811 410.941C961.682 410.941 961.576 410.957 961.494 410.988C961.413 411.018 961.353 411.06 961.314 411.112C961.275 411.165 961.255 411.225 961.253 411.292C961.25 411.348 961.26 411.398 961.282 411.443C961.306 411.486 961.344 411.526 961.395 411.562C961.446 411.597 961.511 411.628 961.59 411.657C961.67 411.685 961.764 411.711 961.874 411.733L962.252 411.814C962.507 411.868 962.725 411.939 962.907 412.028C963.088 412.116 963.237 412.221 963.352 412.341C963.468 412.459 963.552 412.593 963.606 412.741C963.662 412.89 963.69 413.052 963.692 413.227C963.69 413.53 963.615 413.786 963.465 413.996C963.315 414.206 963.1 414.366 962.821 414.476C962.544 414.585 962.21 414.64 961.82 414.64C961.419 414.64 961.07 414.581 960.772 414.462C960.475 414.344 960.244 414.161 960.079 413.915C959.915 413.668 959.833 413.352 959.831 412.966H961.019C961.027 413.107 961.062 413.226 961.125 413.322C961.188 413.418 961.276 413.49 961.39 413.54C961.506 413.589 961.643 413.614 961.802 413.614C961.935 413.614 962.047 413.598 962.137 413.565C962.227 413.532 962.295 413.486 962.342 413.427C962.388 413.369 962.412 413.302 962.414 413.227C962.412 413.157 962.389 413.095 962.344 413.043C962.301 412.989 962.229 412.941 962.128 412.899C962.028 412.855 961.892 412.815 961.721 412.777L961.262 412.678C960.854 412.59 960.532 412.442 960.297 412.235C960.063 412.026 959.947 411.742 959.948 411.382C959.947 411.09 960.025 410.834 960.182 410.615C960.341 410.394 960.561 410.223 960.841 410.1C961.123 409.977 961.446 409.915 961.811 409.915C962.183 409.915 962.505 409.978 962.776 410.102C963.048 410.226 963.257 410.402 963.404 410.628C963.552 410.853 963.627 411.117 963.629 411.418H962.432ZM963.852 410.986V409.978H967.856V410.986H966.47V414.586H965.238V410.986H963.852ZM968.752 414.586H967.402L968.923 409.978H970.633L972.154 414.586H970.804L969.796 411.247H969.76L968.752 414.586ZM968.5 412.768H971.038V413.704H968.5V412.768ZM971.7 410.986V409.978H975.705V410.986H974.319V414.586H973.086V410.986H971.7ZM978.713 409.978H979.963V412.93C979.963 413.281 979.879 413.585 979.711 413.841C979.545 414.096 979.312 414.293 979.014 414.433C978.716 414.571 978.369 414.64 977.975 414.64C977.577 414.64 977.229 414.571 976.931 414.433C976.632 414.293 976.4 414.096 976.233 413.841C976.068 413.585 975.986 413.281 975.986 412.93V409.978H977.237V412.822C977.237 412.965 977.268 413.092 977.331 413.205C977.394 413.316 977.481 413.403 977.592 413.466C977.705 413.529 977.832 413.56 977.975 413.56C978.119 413.56 978.246 413.529 978.357 413.466C978.468 413.403 978.555 413.316 978.618 413.205C978.681 413.092 978.713 412.965 978.713 412.822V409.978ZM982.852 411.418C982.84 411.268 982.783 411.151 982.683 411.067C982.584 410.983 982.433 410.941 982.231 410.941C982.102 410.941 981.996 410.957 981.914 410.988C981.833 411.018 981.773 411.06 981.734 411.112C981.695 411.165 981.674 411.225 981.673 411.292C981.67 411.348 981.68 411.398 981.702 411.443C981.726 411.486 981.764 411.526 981.815 411.562C981.866 411.597 981.931 411.628 982.01 411.657C982.09 411.685 982.184 411.711 982.294 411.733L982.672 411.814C982.927 411.868 983.145 411.939 983.326 412.028C983.508 412.116 983.656 412.221 983.772 412.341C983.887 412.459 983.972 412.593 984.026 412.741C984.082 412.89 984.11 413.052 984.112 413.227C984.11 413.53 984.034 413.786 983.884 413.996C983.734 414.206 983.52 414.366 983.241 414.476C982.963 414.585 982.63 414.64 982.24 414.64C981.839 414.64 981.49 414.581 981.191 414.462C980.894 414.344 980.663 414.161 980.498 413.915C980.335 413.668 980.252 413.352 980.251 412.966H981.439C981.446 413.107 981.482 413.226 981.545 413.322C981.608 413.418 981.696 413.49 981.81 413.54C981.926 413.589 982.063 413.614 982.222 413.614C982.355 413.614 982.467 413.598 982.557 413.565C982.647 413.532 982.715 413.486 982.762 413.427C982.808 413.369 982.832 413.302 982.834 413.227C982.832 413.157 982.809 413.095 982.764 413.043C982.72 412.989 982.648 412.941 982.548 412.899C982.447 412.855 982.312 412.815 982.141 412.777L981.682 412.678C981.274 412.59 980.952 412.442 980.717 412.235C980.483 412.026 980.366 411.742 980.368 411.382C980.366 411.09 980.444 410.834 980.602 410.615C980.761 410.394 980.981 410.223 981.261 410.1C981.543 409.977 981.866 409.915 982.231 409.915C982.603 409.915 982.924 409.978 983.196 410.102C983.467 410.226 983.677 410.402 983.824 410.628C983.972 410.853 984.047 411.117 984.049 411.418H982.852Z" fill="white"/>
</g>
<path d="M479.49 339.783V338.103H486.164V339.783H483.854V345.783H481.799V339.783H479.49ZM486.632 345.783V338.103H492.167V339.783H488.717V341.103H491.882V342.783H488.717V344.103H492.152V345.783H486.632ZM494.879 345.783H492.629L495.164 338.103H498.013L500.548 345.783H498.298L496.619 340.218H496.559L494.879 345.783ZM494.459 342.753H498.688V344.313H494.459V342.753ZM500.971 338.103H503.566L505.351 342.453H505.441L507.226 338.103H509.82V345.783H507.781V341.343H507.721L506.011 345.723H504.781L503.071 341.313H503.011V345.783H500.971V338.103Z" fill="#000429"/>
</g>
<g clip-path="url(#clip5_914_20777)">
<rect width="633.555" height="380.133" transform="translate(1144.44 322)" fill="#0E1216"/>
<rect x="1144.44" y="543.744" width="633.555" height="31.6324" fill="#FFBB00"/>
<rect x="1144.44" y="575.376" width="633.555" height="31.7458" fill="#FF5A00"/>
<rect x="1144.44" y="607.122" width="633.555" height="31.6324" fill="#FF002D"/>
<rect x="1144.44" y="638.755" width="633.555" height="31.7458" fill="#AF01CF"/>
<rect x="1144.44" y="670.5" width="633.555" height="31.6324" fill="#6301BB"/>
<path d="M1171.55 543.861V491.918H1193.97C1197.83 491.918 1201.2 492.679 1204.09 494.2C1206.98 495.722 1209.23 497.861 1210.84 500.617C1212.44 503.373 1213.25 506.594 1213.25 510.28C1213.25 514 1212.42 517.221 1210.76 519.944C1209.12 522.666 1206.81 524.763 1203.84 526.234C1200.88 527.705 1197.42 528.44 1193.46 528.44H1180.07V517.484H1190.62C1192.28 517.484 1193.69 517.196 1194.86 516.621C1196.04 516.029 1196.95 515.192 1197.57 514.11C1198.22 513.028 1198.54 511.752 1198.54 510.28C1198.54 508.793 1198.22 507.524 1197.57 506.476C1196.95 505.411 1196.04 504.599 1194.86 504.041C1193.69 503.466 1192.28 503.179 1190.62 503.179H1185.65V543.861H1171.55ZM1216.28 543.861V491.918H1238.7C1242.55 491.918 1245.93 492.62 1248.82 494.023C1251.71 495.426 1253.96 497.447 1255.57 500.085C1257.17 502.722 1257.98 505.884 1257.98 509.57C1257.98 513.29 1257.15 516.427 1255.49 518.98C1253.85 521.533 1251.54 523.461 1248.57 524.763C1245.61 526.065 1242.15 526.716 1238.19 526.716H1224.8V515.759H1235.35C1237.01 515.759 1238.42 515.556 1239.59 515.15C1240.77 514.727 1241.68 514.06 1242.3 513.146C1242.94 512.233 1243.26 511.041 1243.26 509.57C1243.26 508.082 1242.94 506.873 1242.3 505.943C1241.68 504.997 1240.77 504.303 1239.59 503.864C1238.42 503.407 1237.01 503.179 1235.35 503.179H1230.38V543.861H1216.28ZM1246.71 520.02L1259.7 543.861H1244.38L1231.7 520.02H1246.71ZM1312.16 517.889C1312.16 523.672 1311.04 528.55 1308.79 532.524C1306.54 536.48 1303.51 539.482 1299.68 541.527C1295.86 543.556 1291.6 544.571 1286.9 544.571C1282.17 544.571 1277.89 543.548 1274.07 541.502C1270.26 539.439 1267.24 536.43 1264.99 532.473C1262.76 528.499 1261.64 523.638 1261.64 517.889C1261.64 512.107 1262.76 507.237 1264.99 503.28C1267.24 499.307 1270.26 496.306 1274.07 494.277C1277.89 492.231 1282.17 491.208 1286.9 491.208C1291.6 491.208 1295.86 492.231 1299.68 494.277C1303.51 496.306 1306.54 499.307 1308.79 503.28C1311.04 507.237 1312.16 512.107 1312.16 517.889ZM1297.66 517.889C1297.66 514.778 1297.24 512.157 1296.41 510.027C1295.6 507.879 1294.39 506.256 1292.79 505.157C1291.2 504.041 1289.24 503.483 1286.9 503.483C1284.57 503.483 1282.6 504.041 1280.99 505.157C1279.4 506.256 1278.19 507.879 1277.37 510.027C1276.55 512.157 1276.15 514.778 1276.15 517.889C1276.15 521.001 1276.55 523.63 1277.37 525.777C1278.19 527.908 1279.4 529.531 1280.99 530.647C1282.6 531.746 1284.57 532.295 1286.9 532.295C1289.24 532.295 1291.2 531.746 1292.79 530.647C1294.39 529.531 1295.6 527.908 1296.41 525.777C1297.24 523.63 1297.66 521.001 1297.66 517.889ZM1337.95 491.918H1351.85V527.527C1351.83 530.909 1350.98 533.885 1349.29 536.455C1347.61 539.008 1345.3 541.003 1342.34 542.441C1339.4 543.861 1336.01 544.571 1332.17 544.571C1328.84 544.571 1325.79 543.996 1323.04 542.846C1320.28 541.68 1318.08 539.854 1316.44 537.368C1314.8 534.866 1313.99 531.619 1314.01 527.629H1328.11C1328.16 528.931 1328.38 530.03 1328.77 530.926C1329.18 531.822 1329.73 532.498 1330.44 532.955C1331.17 533.394 1332.05 533.614 1333.08 533.614C1334.13 533.614 1335.01 533.386 1335.72 532.929C1336.45 532.473 1337 531.797 1337.37 530.9C1337.74 529.987 1337.93 528.863 1337.95 527.527V491.918ZM1356.39 543.861V491.918H1393.83V503.28H1370.49V512.208H1391.9V523.571H1370.49V532.498H1393.72V543.861H1356.39ZM1447.17 511.396H1432.87C1432.77 510.213 1432.49 509.139 1432.05 508.175C1431.63 507.212 1431.04 506.383 1430.28 505.69C1429.54 504.98 1428.63 504.439 1427.57 504.067C1426.5 503.678 1425.29 503.483 1423.94 503.483C1421.57 503.483 1419.57 504.058 1417.93 505.208C1416.3 506.358 1415.07 508.006 1414.22 510.154C1413.4 512.301 1412.98 514.88 1412.98 517.889C1412.98 521.068 1413.4 523.731 1414.25 525.879C1415.11 528.009 1416.36 529.615 1417.98 530.698C1419.6 531.763 1421.55 532.295 1423.84 532.295C1425.14 532.295 1426.31 532.135 1427.34 531.814C1428.37 531.475 1429.26 530.993 1430.03 530.368C1430.79 529.742 1431.4 528.99 1431.88 528.111C1432.37 527.214 1432.7 526.208 1432.87 525.092L1447.17 525.194C1447 527.392 1446.38 529.632 1445.32 531.915C1444.25 534.181 1442.74 536.277 1440.78 538.205C1438.84 540.116 1436.43 541.654 1433.55 542.821C1430.68 543.988 1427.34 544.571 1423.53 544.571C1418.76 544.571 1414.49 543.548 1410.7 541.502C1406.93 539.456 1403.94 536.446 1401.75 532.473C1399.57 528.499 1398.47 523.638 1398.47 517.889C1398.47 512.107 1399.59 507.237 1401.82 503.28C1404.05 499.307 1407.06 496.306 1410.85 494.277C1414.64 492.231 1418.87 491.208 1423.53 491.208C1426.81 491.208 1429.83 491.656 1432.59 492.552C1435.34 493.448 1437.76 494.758 1439.84 496.483C1441.92 498.191 1443.59 500.296 1444.86 502.798C1446.13 505.301 1446.9 508.167 1447.17 511.396ZM1450.01 503.28V491.918H1495.15V503.28H1479.53V543.861H1465.63V503.28H1450.01ZM1510.81 496.179V491.918H1548.47V496.179H1532.01V543.861H1527.27V496.179H1510.81ZM1561.75 491.918V543.861H1557.01V491.918H1561.75ZM1570.27 496.179V491.918H1607.94V496.179H1591.48V543.861H1586.73V496.179H1570.27ZM1616.47 543.861V491.918H1621.21V539.6H1645.97V543.861H1616.47ZM1654.5 543.861V491.918H1684.63V496.179H1659.25V515.733H1683.04V519.994H1659.25V539.6H1685.14V543.861H1654.5Z" fill="white"/>
<path d="M1190.01 467.538C1190.01 469.433 1189.64 471.031 1188.9 472.333C1188.17 473.629 1187.17 474.612 1185.92 475.282C1184.67 475.947 1183.27 476.279 1181.73 476.279C1180.18 476.279 1178.78 475.944 1177.53 475.274C1176.28 474.598 1175.29 473.612 1174.55 472.316C1173.82 471.014 1173.46 469.422 1173.46 467.538C1173.46 465.644 1173.82 464.049 1174.55 462.752C1175.29 461.451 1176.28 460.467 1177.53 459.803C1178.78 459.132 1180.18 458.797 1181.73 458.797C1183.27 458.797 1184.67 459.132 1185.92 459.803C1187.17 460.467 1188.17 461.451 1188.9 462.752C1189.64 464.049 1190.01 465.644 1190.01 467.538ZM1185.26 467.538C1185.26 466.519 1185.12 465.66 1184.85 464.962C1184.58 464.259 1184.19 463.727 1183.66 463.367C1183.14 463.002 1182.5 462.819 1181.73 462.819C1180.97 462.819 1180.32 463.002 1179.8 463.367C1179.28 463.727 1178.88 464.259 1178.61 464.962C1178.34 465.66 1178.21 466.519 1178.21 467.538C1178.21 468.558 1178.34 469.419 1178.61 470.122C1178.88 470.82 1179.28 471.352 1179.8 471.718C1180.32 472.078 1180.97 472.258 1181.73 472.258C1182.5 472.258 1183.14 472.078 1183.66 471.718C1184.19 471.352 1184.58 470.82 1184.85 470.122C1185.12 469.419 1185.26 468.558 1185.26 467.538ZM1194.69 476.047L1189.67 459.03H1194.82L1197.15 469.499H1197.28L1200.04 459.03H1204.1L1206.86 469.532H1206.99L1209.31 459.03H1214.47L1209.45 476.047H1205.03L1202.14 466.541H1202L1199.11 476.047H1194.69ZM1229.98 459.03V476.047H1226.13L1219.98 467.106H1219.88V476.047H1215.26V459.03H1219.18L1225.23 467.937H1225.36V459.03H1229.98ZM1231.47 476.047V459.03H1243.73V462.752H1236.09V465.677H1243.1V469.399H1236.09V472.324H1243.7V476.047H1231.47ZM1245.32 476.047V459.03H1252.66C1253.93 459.03 1255.03 459.26 1255.98 459.72C1256.93 460.179 1257.66 460.841 1258.19 461.705C1258.72 462.57 1258.98 463.605 1258.98 464.813C1258.98 466.032 1258.71 467.059 1258.17 467.896C1257.63 468.732 1256.87 469.363 1255.9 469.79C1254.93 470.217 1253.79 470.43 1252.5 470.43H1248.11V466.84H1251.57C1252.11 466.84 1252.57 466.774 1252.96 466.641C1253.34 466.502 1253.64 466.284 1253.84 465.984C1254.06 465.685 1254.16 465.295 1254.16 464.813C1254.16 464.325 1254.06 463.929 1253.84 463.625C1253.64 463.315 1253.34 463.087 1252.96 462.943C1252.57 462.794 1252.11 462.719 1251.57 462.719H1249.94V476.047H1245.32ZM1255.29 468.236L1259.54 476.047H1254.53L1250.37 468.236H1255.29Z" fill="white"/>
<path d="M1172.71 339.783V338.103H1179.39V339.783H1177.08V345.783H1175.02V339.783H1172.71ZM1179.85 345.783V338.103H1185.39V339.783H1181.94V341.103H1185.1V342.783H1181.94V344.103H1185.37V345.783H1179.85ZM1188.1 345.783H1185.85L1188.39 338.103H1191.24L1193.77 345.783H1191.52L1189.84 340.218H1189.78L1188.1 345.783ZM1187.68 342.753H1191.91V344.313H1187.68V342.753ZM1194.19 338.103H1196.79L1198.57 342.453H1198.66L1200.45 338.103H1203.04V345.783H1201V341.343H1200.94L1199.23 345.723H1198L1196.29 341.313H1196.23V345.783H1194.19V338.103Z" fill="white"/>
</g>
</g>
<defs>
<clipPath id="clip0_914_20777">
<rect width="1536" height="1024" fill="white"/>
</clipPath>
<clipPath id="clip1_914_20777">
<rect width="633.555" height="380.133" fill="white" transform="translate(-242 322)"/>
</clipPath>
<clipPath id="clip2_914_20777">
<rect width="105.593" height="105.593" fill="white" transform="translate(256.925 322)"/>
</clipPath>
<clipPath id="clip3_914_20777">
<rect width="633.555" height="380.133" fill="white" transform="translate(451.223 322)"/>
</clipPath>
<clipPath id="clip4_914_20777">
<rect width="105.593" height="105.593" fill="white" transform="translate(950.148 322)"/>
</clipPath>
<clipPath id="clip5_914_20777">
<rect width="633.555" height="380.133" fill="white" transform="translate(1144.44 322)"/>
</clipPath>
</defs>
</svg>
