<svg width="1536" height="1024" viewBox="0 0 1536 1024" fill="none" xmlns="http://www.w3.org/2000/svg">
<g clip-path="url(#clip0_912_20732)">
<g clip-path="url(#clip1_912_20732)">
<path d="M-719.632 819.092C-688.014 820.058 -594.94 822.548 -529.923 824.888C-464.907 827.228 -386.007 836.649 -329.534 833.133C-273.062 829.616 -245.134 802.641 -191.089 803.789C-137.044 804.937 -66.9777 841.749 -5.26237 840.022C56.453 838.295 119.765 796.916 179.203 793.427C238.641 789.939 322.672 814.814 351.365 819.092V184.109L-719.632 184.109V819.092Z" fill="url(#paint0_linear_912_20732)"/>
<path d="M-719.632 766.176C-684.672 770.928 -575.293 798.661 -509.874 794.691C-444.455 790.722 -397.301 753.072 -327.119 742.361C-256.938 731.65 -167.604 719.377 -88.7852 730.426C-9.96621 741.474 72.4365 802.696 145.795 808.654C219.153 814.613 317.104 773.256 351.365 766.176V184.109L-719.632 184.109V766.176Z" fill="url(#paint1_linear_912_20732)"/>
<path d="M-719.632 713.261C-690.302 717.234 -588.909 738.346 -543.651 737.096C-498.393 735.846 -487.149 701.717 -448.084 705.76C-409.019 709.803 -361.195 766.917 -309.258 761.354C-257.322 755.791 -175.213 674.089 -136.465 672.384C-97.7175 670.679 -115.235 736.785 -76.7717 751.124C-38.308 765.463 40.4294 757.909 94.317 758.417C148.205 758.925 203.713 761.696 246.554 754.17C289.395 746.644 333.897 720.08 351.365 713.261V184.109L-719.632 184.109V713.261Z" fill="url(#paint2_linear_912_20732)"/>
<path d="M-719.632 660.347C-692.552 668.04 -611.256 701.959 -557.155 706.505C-503.053 711.051 -460.607 696.902 -395.023 687.624C-329.44 678.345 -227.44 651.064 -163.653 650.833C-99.866 650.602 -73.337 691.086 -12.3003 686.237C48.7365 681.389 141.957 626.056 202.568 621.741C263.179 617.426 326.566 653.912 351.365 660.347V184.11L-719.632 184.11V660.347Z" fill="url(#paint3_linear_912_20732)"/>
<path d="M-719.632 607.43C-673.023 608.794 -522.535 610.113 -439.978 615.613C-357.421 621.113 -306.222 644.447 -224.289 640.428C-142.356 636.41 -44.3234 596.999 51.6191 591.499C147.562 586 301.408 604.775 351.365 607.43V184.109L-719.632 184.109V607.43Z" fill="url(#paint4_linear_912_20732)"/>
<path d="M-719.632 554.517C-668.993 557.248 -507.574 567.477 -415.8 570.906C-324.027 574.335 -247.259 574.958 -168.993 575.092C-90.726 575.227 -32.9271 575.143 53.7993 571.714C140.526 568.284 301.771 557.383 351.365 554.517V184.11L-719.632 184.11V554.517Z" fill="url(#paint5_linear_912_20732)"/>
<path d="M-719.632 501.6C-679.125 507.798 -568.42 543.963 -476.592 538.786C-384.764 533.609 -257.186 484.19 -168.663 470.538C-80.1392 456.886 -32.1215 451.698 54.5499 456.875C141.221 462.052 301.896 494.146 351.365 501.6V184.109L-719.632 184.109V501.6Z" fill="url(#paint6_linear_912_20732)"/>
<path d="M-719.632 448.686C-685.99 449.246 -567.876 457.184 -517.78 452.044C-467.683 446.904 -454.867 421.489 -419.054 417.845C-383.242 414.202 -357.869 427.163 -302.905 430.183C-247.941 433.204 -154.243 436.672 -89.2709 435.967C-24.2985 435.262 41.655 417.918 86.9287 425.953C132.202 433.989 138.299 480.394 182.372 484.182C226.444 487.971 323.2 454.602 351.365 448.686V184.11L-719.632 184.11V448.686Z" fill="url(#paint7_linear_912_20732)"/>
<path d="M-719.632 395.77C-676.109 392.255 -523.402 376.763 -458.491 374.679C-393.581 372.595 -386.677 384.867 -330.17 383.266C-273.663 381.666 -203.411 358.296 -119.45 365.075C-35.4892 371.854 95.125 418.827 173.594 423.943C252.063 429.058 321.737 400.465 351.365 395.77V184.109L-719.632 184.109V395.77Z" fill="url(#paint8_linear_912_20732)"/>
<path d="M-719.632 342.854C-696.702 334.999 -639.338 290.875 -582.053 295.723C-524.767 300.571 -441.883 363.262 -375.919 371.943C-309.954 380.625 -249.794 349.755 -186.267 347.811C-122.74 345.867 -51.8986 355.357 5.24511 360.281C62.3889 365.204 98.9087 380.254 156.595 377.35C214.282 374.445 318.904 348.603 351.365 342.854V184.109L-719.632 184.109V342.854Z" fill="url(#paint9_linear_912_20732)"/>
<path d="M-719.632 289.94C-705.035 281.978 -680.695 238.433 -632.051 242.165C-583.407 245.897 -475.498 309.679 -427.767 312.329C-380.036 314.98 -392.687 261.787 -345.666 258.067C-298.645 254.347 -186.941 283.006 -145.641 290.01C-104.341 297.015 -142.216 305.591 -97.867 300.095C-53.5177 294.599 68.5317 250.497 120.455 257.034C172.379 263.572 175.189 333.834 213.674 339.319C252.159 344.803 328.417 298.17 351.365 289.94V184.11L-719.632 184.11V289.94Z" fill="url(#paint10_linear_912_20732)"/>
<path d="M-719.632 237.024C-686.193 235.941 -564.233 226.692 -518.996 230.524C-473.759 234.356 -491.506 251.527 -448.208 260.018C-404.911 268.509 -308.926 287.867 -259.211 281.471C-209.496 275.076 -202.001 222.087 -149.918 221.645C-97.8353 221.202 -4.97905 272.515 53.2851 278.814C111.549 285.113 149.987 266.402 199.667 259.437C249.347 252.472 326.082 240.76 351.365 237.024V184.109L-719.632 184.109V237.024Z" fill="url(#paint11_linear_912_20732)"/>
</g>
<g clip-path="url(#clip2_912_20732)">
<path d="M232.389 808.902C259.562 810.723 338.803 820.113 395.425 819.828C452.046 819.543 526.984 803.872 572.117 807.191C617.251 810.511 626.727 836.679 666.225 839.745C705.724 842.811 758.437 827.818 809.109 825.588C859.78 823.359 915.737 834.548 970.255 826.367C1024.77 818.185 1080.7 779.411 1136.22 776.5C1191.74 773.59 1275.53 803.501 1303.39 808.902V184.185L232.389 184.185L232.389 808.902Z" fill="url(#paint12_linear_912_20732)"/>
<path d="M232.389 756.841C273.109 761.946 385.387 792.59 476.71 787.47C568.032 782.35 691.828 726.915 780.324 726.123C868.82 725.33 920.508 777.595 1007.68 782.715C1094.86 787.834 1254.1 761.153 1303.39 756.841V184.183L232.389 184.183L232.389 756.841Z" fill="url(#paint13_linear_912_20732)"/>
<path d="M232.389 704.782C275.604 712.776 428.524 747.667 491.681 752.743C554.838 757.819 545.839 743.342 611.33 735.239C676.821 727.135 799.039 702.758 884.627 704.12C970.214 705.483 1055.06 743.305 1124.85 743.415C1194.65 743.526 1273.63 711.221 1303.39 704.782V184.185L232.389 184.185L232.389 704.782Z" fill="url(#paint14_linear_912_20732)"/>
<path d="M232.389 652.723C279.645 650.569 418.741 639.248 515.925 639.799C613.109 640.349 722.946 652.151 815.494 656.027C908.042 659.902 989.896 663.603 1071.21 663.052C1152.53 662.501 1264.69 654.444 1303.39 652.723V184.185L232.389 184.185L232.389 652.723Z" fill="url(#paint15_linear_912_20732)"/>
<path d="M232.389 600.663C257.167 596.936 327.786 579.553 381.056 578.301C434.326 577.048 482.946 586.542 552.01 593.147C621.074 599.752 734.839 619.811 795.44 617.932C856.041 616.053 861.515 584.219 915.615 581.871C969.716 579.524 1055.41 600.715 1120.04 603.847C1184.67 606.978 1272.83 601.193 1303.39 600.663V184.185L232.389 184.185L232.389 600.663Z" fill="url(#paint16_linear_912_20732)"/>
<path d="M232.389 548.603C266.168 545.184 387.255 532.674 435.063 528.087C482.871 523.501 473.042 511.353 519.238 521.086C565.433 530.818 664.259 589.955 712.235 586.482C760.211 583.009 760.245 498.738 807.091 500.246C853.937 501.754 929.054 581.885 993.312 595.531C1057.57 609.176 1140.96 589.941 1192.64 582.12C1244.32 574.299 1284.93 554.19 1303.39 548.603V184.185L232.389 184.185L232.389 548.603Z" fill="url(#paint17_linear_912_20732)"/>
<path d="M232.389 496.543C264.281 502.73 347.012 530.795 423.742 533.664C500.473 536.534 612.951 522.982 692.773 513.762C772.594 504.541 837.121 488.754 902.671 478.342C968.221 467.93 1019.29 448.256 1086.07 451.289C1152.86 454.323 1267.17 489.001 1303.39 496.543V184.184L232.389 184.184L232.389 496.543Z" fill="url(#paint18_linear_912_20732)"/>
<path d="M232.389 444.484C267.04 452.568 386.882 495.03 440.293 492.987C493.704 490.944 505.818 441.329 552.856 432.226C599.894 423.123 664.594 435.481 722.523 438.371C780.452 441.26 833.278 447.731 900.431 449.563C967.584 451.395 1058.28 450.209 1125.44 449.363C1192.6 448.516 1273.73 445.297 1303.39 444.484V184.185L232.389 184.185L232.389 444.484Z" fill="url(#paint19_linear_912_20732)"/>
<path d="M232.389 392.423C274.323 389.449 418.449 382.282 483.995 374.581C549.541 366.879 556.384 349.416 625.665 346.215C694.946 343.014 819.49 349.787 899.68 355.375C979.87 360.964 1039.52 373.572 1106.8 379.747C1174.09 385.922 1270.62 390.31 1303.39 392.423V184.184L232.389 184.184V392.423Z" fill="url(#paint20_linear_912_20732)"/>
<path d="M232.389 340.365C262.388 334.179 347.749 304.775 412.383 303.253C477.017 301.731 560.602 332.292 620.196 331.233C679.789 330.173 721.323 298.814 769.943 296.896C818.562 294.978 850.427 311.855 911.911 319.723C973.395 327.591 1073.6 340.664 1138.85 344.104C1204.09 347.545 1275.96 340.988 1303.39 340.365V184.185L232.389 184.185V340.365Z" fill="url(#paint21_linear_912_20732)"/>
<path d="M232.389 288.304C265.258 293.13 372.82 315.68 429.603 317.257C486.387 318.833 528.881 300.622 573.089 297.762C617.297 294.902 644.336 300.349 694.851 300.098C745.366 299.847 824.31 302.775 876.178 296.258C928.046 289.741 954.804 258.687 1006.06 260.995C1057.32 263.304 1134.17 305.559 1183.72 310.11C1233.28 314.662 1283.44 291.939 1303.39 288.304V184.185L232.389 184.185V288.304Z" fill="url(#paint22_linear_912_20732)"/>
<path d="M232.389 236.245C272.16 243.518 392.078 281.358 471.014 279.884C549.95 278.41 633.424 241.361 706.006 227.4C778.587 213.44 843.425 188.723 906.503 196.121C969.581 203.519 1018.33 265.102 1084.47 271.789C1150.62 278.476 1266.9 242.169 1303.39 236.245V184.185L232.389 184.185V236.245Z" fill="url(#paint23_linear_912_20732)"/>
</g>
<g clip-path="url(#clip3_912_20732)">
<path d="M1165.64 840.831C1194.39 835.052 1257.52 811.673 1338.17 806.158C1418.82 800.643 1561.3 798.333 1649.53 807.741C1737.77 817.15 1798.4 865.025 1867.58 862.608C1936.77 860.191 1997 796.869 2064.64 793.24C2132.28 789.61 2238.64 832.899 2273.43 840.831V184.184L1165.64 184.184V840.831Z" fill="url(#paint24_linear_912_20732)"/>
<path d="M1165.64 786.111C1186.66 782.066 1238.86 766.401 1291.77 761.844C1344.68 757.287 1443.38 755.83 1483.09 758.768C1522.81 761.706 1482.03 770.517 1530.06 779.473C1578.08 788.429 1714.6 803.339 1771.25 812.503C1827.91 821.667 1833.6 846.872 1870 834.456C1906.39 822.04 1944.97 753.561 1989.63 738.005C2034.29 722.449 2090.67 733.102 2137.97 741.12C2185.27 749.137 2250.86 778.612 2273.43 786.111V184.184L1165.64 184.184V786.111Z" fill="url(#paint25_linear_912_20732)"/>
<path d="M1165.64 731.39C1191.65 732.176 1264.45 744.635 1321.71 736.105C1378.97 727.574 1449.2 682.574 1509.19 680.207C1569.18 677.841 1637.96 709.31 1681.64 721.906C1725.32 734.502 1726.55 753.621 1771.27 755.784C1815.98 757.947 1893.94 745.291 1949.93 734.883C2005.92 724.474 2053.28 693.914 2107.19 693.332C2161.11 692.75 2245.73 725.047 2273.43 731.39V184.185L1165.64 184.185V731.39Z" fill="url(#paint26_linear_912_20732)"/>
<path d="M1165.64 676.669C1186.31 674.99 1243.64 670.757 1289.66 666.595C1335.67 662.434 1384.51 654.596 1441.73 651.7C1498.96 648.804 1579.67 648.878 1633.01 649.218C1686.36 649.558 1709.27 649.614 1761.81 653.739C1814.35 657.864 1891.5 665.282 1948.24 673.969C2004.99 682.657 2048.06 705.414 2102.26 705.864C2156.46 706.314 2244.9 681.535 2273.43 676.669V184.184L1165.64 184.184V676.669Z" fill="url(#paint27_linear_912_20732)"/>
<path d="M1165.64 621.948C1211.44 614.249 1351.85 568.744 1440.43 575.75C1529.02 582.756 1599.96 661.157 1697.16 663.984C1794.36 666.812 1927.6 599.718 2023.64 592.712C2119.69 585.706 2231.8 617.076 2273.43 621.948V184.184L1165.64 184.184V621.948Z" fill="url(#paint28_linear_912_20732)"/>
<path d="M1165.64 567.229C1195.65 561.1 1264.22 538.687 1345.69 530.46C1427.16 522.233 1570.45 505.616 1654.44 517.867C1738.43 530.118 1787.95 591.318 1849.62 603.965C1911.3 616.612 1953.86 599.874 2024.49 593.751C2095.13 587.628 2231.94 571.649 2273.43 567.229V184.185L1165.64 184.185V567.229Z" fill="url(#paint29_linear_912_20732)"/>
<path d="M1165.64 512.508C1195.09 511.419 1289.29 507.807 1342.35 505.975C1395.42 504.142 1429.82 496.68 1484.02 501.511C1538.23 506.342 1622.04 535.352 1667.56 534.961C1713.08 534.571 1702.38 504.782 1757.13 499.167C1811.89 493.551 1937.08 507.641 1996.11 501.269C2055.15 494.897 2065.13 459.062 2111.35 460.935C2157.57 462.808 2246.42 503.912 2273.43 512.508V184.184L1165.64 184.184V512.508Z" fill="url(#paint30_linear_912_20732)"/>
<path d="M1165.64 457.788C1187.97 464.355 1235.97 497.299 1299.64 497.19C1363.31 497.081 1486.04 455.024 1547.66 457.133C1609.28 459.242 1610.38 502.783 1669.36 509.844C1728.34 516.906 1825.34 506.083 1901.52 499.503C1977.71 492.922 2064.48 477.314 2126.46 470.362C2188.45 463.409 2248.94 459.883 2273.43 457.788V184.185L1165.64 184.185V457.788Z" fill="url(#paint31_linear_912_20732)"/>
<path d="M1165.64 403.067C1219.88 395.329 1400.56 364.165 1491.12 356.638C1581.68 349.111 1618.22 357.501 1708.97 357.905C1799.71 358.31 1941.51 351.538 2035.59 359.065C2129.67 366.592 2233.79 395.734 2273.43 403.067V184.185L1165.64 184.185V403.067Z" fill="url(#paint32_linear_912_20732)"/>
<path d="M1165.64 348.346C1191.09 355.134 1248.16 392.426 1318.33 389.077C1388.51 385.727 1512.62 329.66 1586.67 328.251C1660.71 326.843 1701.66 371.761 1762.59 380.626C1823.52 389.491 1901.33 379.853 1952.23 381.441C2003.13 383.029 2014.47 395.67 2068.01 390.154C2121.54 384.638 2239.2 355.314 2273.43 348.346V184.184L1165.64 184.184V348.346Z" fill="url(#paint33_linear_912_20732)"/>
<path d="M1165.64 293.625C1192.81 292.858 1275.26 290.943 1328.68 289.023C1382.09 287.102 1427.22 280.3 1486.13 282.103C1545.03 283.906 1619.18 300.011 1682.1 299.842C1745.03 299.672 1804.01 279.159 1863.7 281.085C1923.39 283.01 1971.95 309.303 2040.24 311.393C2108.53 313.483 2234.57 296.586 2273.43 293.625V184.184L1165.64 184.184V293.625Z" fill="url(#paint34_linear_912_20732)"/>
<path d="M1165.64 238.905C1197.47 241.3 1279.23 254.326 1356.66 253.278C1434.09 252.231 1547.41 232.271 1630.21 232.62C1713.01 232.969 1777.82 257.533 1853.47 255.371C1929.12 253.209 2014.11 222.393 2084.11 219.649C2154.1 216.905 2241.88 235.696 2273.43 238.905V184.184L1165.64 184.184V238.905Z" fill="url(#paint35_linear_912_20732)"/>
</g>
</g>
<defs>
<linearGradient id="paint0_linear_912_20732" x1="-719.632" y1="774.484" x2="333.989" y2="946.507" gradientUnits="userSpaceOnUse">
<stop stop-color="#01B8F7"/>
</linearGradient>
<linearGradient id="paint1_linear_912_20732" x1="-719.632" y1="746.726" x2="331.231" y2="926.764" gradientUnits="userSpaceOnUse">
<stop stop-color="#129AFE"/>
<stop offset="0.0833333" stop-color="#12C1FE"/>
</linearGradient>
<linearGradient id="paint2_linear_912_20732" x1="-719.632" y1="703.973" x2="326.124" y2="897.87" gradientUnits="userSpaceOnUse">
<stop stop-color="#29A4FE"/>
<stop offset="0.166667" stop-color="#29C7FE"/>
</linearGradient>
<linearGradient id="paint3_linear_912_20732" x1="-719.632" y1="655.055" x2="318.584" y2="867.55" gradientUnits="userSpaceOnUse">
<stop stop-color="#41AEFE"/>
<stop offset="0.25" stop-color="#41CDFE"/>
</linearGradient>
<linearGradient id="paint4_linear_912_20732" x1="-719.632" y1="595.213" x2="305.708" y2="835.62" gradientUnits="userSpaceOnUse">
<stop stop-color="#59B8FE"/>
<stop offset="0.333333" stop-color="#59D3FE"/>
</linearGradient>
<linearGradient id="paint5_linear_912_20732" x1="-719.632" y1="536.026" x2="286.588" y2="811.63" gradientUnits="userSpaceOnUse">
<stop stop-color="#70C2FE"/>
<stop offset="0.416667" stop-color="#70DAFE"/>
</linearGradient>
<linearGradient id="paint6_linear_912_20732" x1="-719.632" y1="503.773" x2="271.92" y2="802.76" gradientUnits="userSpaceOnUse">
<stop stop-color="#88CCFF"/>
<stop offset="0.5" stop-color="#88E0FF"/>
</linearGradient>
<linearGradient id="paint7_linear_912_20732" x1="-719.632" y1="454.444" x2="240.066" y2="796.632" gradientUnits="userSpaceOnUse">
<stop stop-color="#A0D6FF"/>
<stop offset="0.583333" stop-color="#A0E6FF"/>
</linearGradient>
<linearGradient id="paint8_linear_912_20732" x1="-719.632" y1="400.509" x2="182.992" y2="802.56" gradientUnits="userSpaceOnUse">
<stop stop-color="#B7E1FF"/>
<stop offset="0.666667" stop-color="#B7EDFF"/>
</linearGradient>
<linearGradient id="paint9_linear_912_20732" x1="-719.632" y1="358.358" x2="108.628" y2="816.528" gradientUnits="userSpaceOnUse">
<stop stop-color="#CFEBFF"/>
<stop offset="0.75" stop-color="#CFF3FF"/>
</linearGradient>
<linearGradient id="paint10_linear_912_20732" x1="-719.632" y1="324.2" x2="14.5163" y2="829.334" gradientUnits="userSpaceOnUse">
<stop stop-color="#E7F5FF"/>
<stop offset="0.833333" stop-color="#E7F9FF"/>
</linearGradient>
<linearGradient id="paint11_linear_912_20732" x1="-719.632" y1="272.88" x2="-223.21" y2="811.906" gradientUnits="userSpaceOnUse">
<stop stop-color="#FEFFFF"/>
<stop offset="0.916667" stop-color="#FEFFFF"/>
</linearGradient>
<linearGradient id="paint12_linear_912_20732" x1="232.389" y1="774.559" x2="1286.01" y2="946.583" gradientUnits="userSpaceOnUse">
<stop stop-color="#0301F7"/>
</linearGradient>
<linearGradient id="paint13_linear_912_20732" x1="232.389" y1="727.658" x2="1281.11" y2="913.657" gradientUnits="userSpaceOnUse">
<stop stop-color="#451DFE"/>
<stop offset="0.0833333" stop-color="#201DFE"/>
</linearGradient>
<linearGradient id="paint14_linear_912_20732" x1="232.389" y1="696.836" x2="1277.16" y2="893.276" gradientUnits="userSpaceOnUse">
<stop stop-color="#6241FE"/>
<stop offset="0.166667" stop-color="#4241FE"/>
</linearGradient>
<linearGradient id="paint15_linear_912_20732" x1="232.389" y1="615.215" x2="1262.58" y2="845.592" gradientUnits="userSpaceOnUse">
<stop stop-color="#7F64FE"/>
<stop offset="0.25" stop-color="#6564FE"/>
</linearGradient>
<linearGradient id="paint16_linear_912_20732" x1="232.389" y1="574.669" x2="1251.97" y2="826.349" gradientUnits="userSpaceOnUse">
<stop stop-color="#9C88FF"/>
<stop offset="0.333333" stop-color="#8888FF"/>
</linearGradient>
<linearGradient id="paint17_linear_912_20732" x1="232.389" y1="558.681" x2="1246.89" y2="819.799" gradientUnits="userSpaceOnUse">
<stop stop-color="#BAABFF"/>
<stop offset="0.416667" stop-color="#ACABFF"/>
</linearGradient>
<linearGradient id="paint18_linear_912_20732" x1="232.389" y1="499.069" x2="1221.42" y2="801.823" gradientUnits="userSpaceOnUse">
<stop stop-color="#D7CEFF"/>
<stop offset="0.5" stop-color="#CFCEFF"/>
</linearGradient>
<linearGradient id="paint19_linear_912_20732" x1="232.389" y1="462.171" x2="1198" y2="796.99" gradientUnits="userSpaceOnUse">
<stop stop-color="#F4F2FF"/>
<stop offset="0.583333" stop-color="#F2F2FF"/>
</linearGradient>
<linearGradient id="paint20_linear_912_20732" x1="232.389" y1="371.599" x2="1087.82" y2="811.558" gradientUnits="userSpaceOnUse">
<stop stop-color="white"/>
<stop offset="0.666667" stop-color="white"/>
</linearGradient>
<linearGradient id="paint21_linear_912_20732" x1="232.389" y1="329.006" x2="982.014" y2="827.942" gradientUnits="userSpaceOnUse">
<stop stop-color="white"/>
<stop offset="0.75" stop-color="white"/>
</linearGradient>
<linearGradient id="paint22_linear_912_20732" x1="232.389" y1="304.036" x2="889.239" y2="832.305" gradientUnits="userSpaceOnUse">
<stop stop-color="white"/>
<stop offset="0.833333" stop-color="white"/>
</linearGradient>
<linearGradient id="paint23_linear_912_20732" x1="232.389" y1="270.352" x2="712.86" y2="807.825" gradientUnits="userSpaceOnUse">
<stop stop-color="white"/>
<stop offset="0.916667" stop-color="white"/>
</linearGradient>
<linearGradient id="paint24_linear_912_20732" x1="1165.64" y1="794.845" x2="2255.46" y2="972.779" gradientUnits="userSpaceOnUse">
<stop stop-color="#A501F7"/>
</linearGradient>
<linearGradient id="paint25_linear_912_20732" x1="1165.64" y1="772.463" x2="2253.27" y2="956.796" gradientUnits="userSpaceOnUse">
<stop stop-color="#D715FE"/>
<stop offset="0.0833333" stop-color="#B015FE"/>
</linearGradient>
<linearGradient id="paint26_linear_912_20732" x1="1165.64" y1="698.844" x2="2244.04" y2="907.756" gradientUnits="userSpaceOnUse">
<stop stop-color="#DC31FE"/>
<stop offset="0.166667" stop-color="#BA31FE"/>
</linearGradient>
<linearGradient id="paint27_linear_912_20732" x1="1165.64" y1="653.701" x2="2236.24" y2="881.043" gradientUnits="userSpaceOnUse">
<stop stop-color="#E14CFE"/>
<stop offset="0.25" stop-color="#C34CFE"/>
</linearGradient>
<linearGradient id="paint28_linear_912_20732" x1="1165.64" y1="616.083" x2="2227.9" y2="861.302" gradientUnits="userSpaceOnUse">
<stop stop-color="#E567FE"/>
<stop offset="0.333333" stop-color="#CC67FE"/>
</linearGradient>
<linearGradient id="paint29_linear_912_20732" x1="1165.64" y1="566.135" x2="2213.14" y2="839.567" gradientUnits="userSpaceOnUse">
<stop stop-color="#EA83FE"/>
<stop offset="0.416667" stop-color="#D583FE"/>
</linearGradient>
<linearGradient id="paint30_linear_912_20732" x1="1165.64" y1="499.887" x2="2183.04" y2="821.193" gradientUnits="userSpaceOnUse">
<stop stop-color="#EF9EFF"/>
<stop offset="0.5" stop-color="#DF9EFF"/>
</linearGradient>
<linearGradient id="paint31_linear_912_20732" x1="1165.64" y1="479.351" x2="2169.93" y2="818.582" gradientUnits="userSpaceOnUse">
<stop stop-color="#F3B9FF"/>
<stop offset="0.583333" stop-color="#E7B9FF"/>
</linearGradient>
<linearGradient id="paint32_linear_912_20732" x1="1165.64" y1="381.179" x2="2056.35" y2="831.984" gradientUnits="userSpaceOnUse">
<stop stop-color="#F8D5FF"/>
<stop offset="0.666667" stop-color="#F1D5FF"/>
</linearGradient>
<linearGradient id="paint33_linear_912_20732" x1="1165.64" y1="370.803" x2="2036.07" y2="835.834" gradientUnits="userSpaceOnUse">
<stop stop-color="#FCF0FF"/>
<stop offset="0.75" stop-color="#F9F0FF"/>
</linearGradient>
<linearGradient id="paint34_linear_912_20732" x1="1165.64" y1="298.833" x2="1802.72" y2="852.856" gradientUnits="userSpaceOnUse">
<stop stop-color="white"/>
<stop offset="0.833333" stop-color="white"/>
</linearGradient>
<linearGradient id="paint35_linear_912_20732" x1="1165.64" y1="248.373" x2="1493.5" y2="757.634" gradientUnits="userSpaceOnUse">
<stop stop-color="white"/>
<stop offset="0.916667" stop-color="white"/>
</linearGradient>
<clipPath id="clip0_912_20732">
<rect width="1536" height="1024" fill="white"/>
</clipPath>
<clipPath id="clip1_912_20732">
<rect width="945.922" height="532.081" fill="white" transform="translate(-657 246)"/>
</clipPath>
<clipPath id="clip2_912_20732">
<rect width="945.922" height="532.081" fill="white" transform="translate(294.833 246)"/>
</clipPath>
<clipPath id="clip3_912_20732">
<rect width="945.922" height="532.081" fill="white" transform="translate(1246.67 246)"/>
</clipPath>
</defs>
</svg>
